<svg width="195" height="32" viewBox="0 0 195 32" fill="none" xmlns="http://www.w3.org/2000/svg">
<path d="M41.17 15V5.718H47.033V7.343H43.133V9.28H43.913C44.7883 9.28 45.5033 9.40133 46.058 9.644C46.6213 9.88667 47.0373 10.2203 47.306 10.645C47.5747 11.0697 47.709 11.555 47.709 12.101C47.709 12.7077 47.5747 13.2277 47.306 13.661C47.0373 14.0943 46.6213 14.428 46.058 14.662C45.4947 14.8873 44.7667 15 43.874 15H41.17ZM43.796 13.388C44.394 13.388 44.862 13.2927 45.2 13.102C45.5467 12.9113 45.72 12.5777 45.72 12.101C45.72 11.7717 45.6333 11.5203 45.46 11.347C45.2953 11.1737 45.057 11.0567 44.745 10.996C44.4417 10.9267 44.0733 10.892 43.64 10.892H43.133V13.388H43.796ZM52.229 7.772C52.8877 7.772 53.451 7.89767 53.919 8.149C54.3957 8.40033 54.764 8.76433 55.024 9.241C55.284 9.71767 55.414 10.3027 55.414 10.996V11.932H50.838C50.8554 12.478 51.0157 12.907 51.319 13.219C51.631 13.531 52.06 13.687 52.606 13.687C53.0654 13.687 53.4814 13.6437 53.854 13.557C54.2267 13.4617 54.6124 13.3187 55.011 13.128V14.623C54.6644 14.7963 54.296 14.922 53.906 15C53.5247 15.0867 53.061 15.13 52.515 15.13C51.8044 15.13 51.176 15 50.63 14.74C50.084 14.4713 49.655 14.0683 49.343 13.531C49.031 12.9937 48.875 12.3177 48.875 11.503C48.875 10.671 49.0137 9.982 49.291 9.436C49.577 8.88133 49.9714 8.46533 50.474 8.188C50.9767 7.91067 51.5617 7.772 52.229 7.772ZM52.242 9.15C51.8694 9.15 51.5574 9.27133 51.306 9.514C51.0634 9.75667 50.9204 10.1337 50.877 10.645H53.594C53.594 10.359 53.542 10.1033 53.438 9.878C53.3427 9.65267 53.1954 9.475 52.996 9.345C52.7967 9.215 52.5454 9.15 52.242 9.15ZM63.3417 15H61.4047V9.358H59.6237C59.537 10.398 59.4287 11.2863 59.2987 12.023C59.1774 12.751 59.0214 13.3447 58.8307 13.804C58.6487 14.2633 58.4147 14.6013 58.1287 14.818C57.8427 15.026 57.4917 15.13 57.0757 15.13C56.8504 15.13 56.6467 15.1127 56.4647 15.078C56.2827 15.0433 56.118 14.9913 55.9707 14.922V13.375C56.066 13.4097 56.1657 13.44 56.2697 13.466C56.3737 13.492 56.482 13.505 56.5947 13.505C56.716 13.505 56.8287 13.4573 56.9327 13.362C57.0454 13.2667 57.1494 13.0977 57.2447 12.855C57.3487 12.6123 57.444 12.2787 57.5307 11.854C57.6174 11.4293 57.6954 10.8963 57.7647 10.255C57.8427 9.605 57.912 8.82067 57.9727 7.902H63.3417V15ZM71.8116 11.438C71.8116 12.0273 71.7293 12.5517 71.5646 13.011C71.4086 13.4703 71.1789 13.8603 70.8756 14.181C70.5809 14.493 70.2213 14.7313 69.7966 14.896C69.3719 15.052 68.8909 15.13 68.3536 15.13C67.8596 15.13 67.4003 15.052 66.9756 14.896C66.5596 14.7313 66.1999 14.493 65.8966 14.181C65.5933 13.8603 65.3549 13.4703 65.1816 13.011C65.0169 12.5517 64.9346 12.0273 64.9346 11.438C64.9346 10.6493 65.0733 9.98633 65.3506 9.449C65.6279 8.903 66.0266 8.487 66.5466 8.201C67.0666 7.915 67.6819 7.772 68.3926 7.772C69.0599 7.772 69.6493 7.915 70.1606 8.201C70.6719 8.487 71.0749 8.903 71.3696 9.449C71.6643 9.98633 71.8116 10.6493 71.8116 11.438ZM66.9106 11.438C66.9106 11.906 66.9583 12.3003 67.0536 12.621C67.1576 12.933 67.3179 13.1713 67.5346 13.336C67.7513 13.492 68.0329 13.57 68.3796 13.57C68.7263 13.57 69.0036 13.492 69.2116 13.336C69.4283 13.1713 69.5843 12.933 69.6796 12.621C69.7836 12.3003 69.8356 11.906 69.8356 11.438C69.8356 10.97 69.7836 10.58 69.6796 10.268C69.5843 9.956 69.4283 9.722 69.2116 9.566C68.9949 9.41 68.7133 9.332 68.3666 9.332C67.8553 9.332 67.4826 9.50967 67.2486 9.865C67.0233 10.2117 66.9106 10.736 66.9106 11.438ZM77.3644 7.772C78.1618 7.772 78.8074 8.084 79.3014 8.708C79.7954 9.32333 80.0424 10.2333 80.0424 11.438C80.0424 12.244 79.9254 12.9243 79.6914 13.479C79.4574 14.025 79.1368 14.4367 78.7294 14.714C78.3221 14.9913 77.8498 15.13 77.3124 15.13C76.9744 15.13 76.6798 15.0867 76.4284 15C76.1858 14.9133 75.9778 14.8007 75.8044 14.662C75.6311 14.5233 75.4794 14.376 75.3494 14.22H75.2454C75.2801 14.3847 75.3061 14.558 75.3234 14.74C75.3408 14.9133 75.3494 15.0867 75.3494 15.26V18.12H73.4124V7.902H74.9854L75.2584 8.825H75.3494C75.4794 8.63433 75.6354 8.461 75.8174 8.305C75.9994 8.14033 76.2161 8.01033 76.4674 7.915C76.7274 7.81967 77.0264 7.772 77.3644 7.772ZM76.7404 9.319C76.4024 9.319 76.1338 9.38833 75.9344 9.527C75.7351 9.66567 75.5878 9.878 75.4924 10.164C75.4058 10.4413 75.3581 10.7923 75.3494 11.217V11.425C75.3494 11.8843 75.3928 12.2743 75.4794 12.595C75.5661 12.907 75.7134 13.1453 75.9214 13.31C76.1294 13.4747 76.4111 13.557 76.7664 13.557C77.0611 13.557 77.3038 13.4747 77.4944 13.31C77.6851 13.1453 77.8281 12.9027 77.9234 12.582C78.0188 12.2613 78.0664 11.8713 78.0664 11.412C78.0664 10.7187 77.9581 10.1987 77.7414 9.852C77.5334 9.49667 77.1998 9.319 76.7404 9.319ZM80.498 7.902H82.617L83.956 11.893C83.9994 12.023 84.034 12.153 84.06 12.283C84.0947 12.413 84.1207 12.5473 84.138 12.686C84.164 12.8247 84.1814 12.972 84.19 13.128H84.229C84.255 12.9027 84.2897 12.6903 84.333 12.491C84.385 12.283 84.4414 12.0837 84.502 11.893L85.815 7.902H87.895L84.892 15.91C84.71 16.3953 84.4717 16.8027 84.177 17.132C83.891 17.4613 83.5574 17.7083 83.176 17.873C82.7947 18.0377 82.3787 18.12 81.928 18.12C81.7114 18.12 81.5207 18.107 81.356 18.081C81.2 18.0637 81.0614 18.042 80.94 18.016V16.482C81.0354 16.4993 81.148 16.5167 81.278 16.534C81.4167 16.5513 81.5597 16.56 81.707 16.56C81.9757 16.56 82.2054 16.5037 82.396 16.391C82.5954 16.2783 82.76 16.1223 82.89 15.923C83.02 15.7323 83.124 15.5243 83.202 15.299L83.319 14.948L80.498 7.902ZM91.7994 15.13C91.0974 15.13 90.4994 15.0043 90.0054 14.753C89.5114 14.493 89.1344 14.0943 88.8744 13.557C88.6144 13.0197 88.4844 12.3307 88.4844 11.49C88.4844 10.6233 88.6317 9.917 88.9264 9.371C89.2211 8.825 89.6284 8.422 90.1484 8.162C90.6771 7.902 91.2837 7.772 91.9684 7.772C92.4537 7.772 92.8741 7.81967 93.2294 7.915C93.5934 8.01033 93.9097 8.123 94.1784 8.253L93.6064 9.748C93.3031 9.62667 93.0171 9.527 92.7484 9.449C92.4884 9.371 92.2284 9.332 91.9684 9.332C91.6304 9.332 91.3487 9.41433 91.1234 9.579C90.8981 9.735 90.7291 9.97333 90.6164 10.294C90.5124 10.606 90.4604 11.0003 90.4604 11.477C90.4604 11.945 90.5167 12.335 90.6294 12.647C90.7507 12.9503 90.9241 13.18 91.1494 13.336C91.3747 13.4833 91.6477 13.557 91.9684 13.557C92.3757 13.557 92.7354 13.505 93.0474 13.401C93.3594 13.2883 93.6627 13.1367 93.9574 12.946V14.597C93.6627 14.7877 93.3507 14.922 93.0214 15C92.7007 15.0867 92.2934 15.13 91.7994 15.13ZM98.4771 15.13C97.7751 15.13 97.1771 15.0043 96.6831 14.753C96.1891 14.493 95.8121 14.0943 95.5521 13.557C95.2921 13.0197 95.1621 12.3307 95.1621 11.49C95.1621 10.6233 95.3095 9.917 95.6041 9.371C95.8988 8.825 96.3061 8.422 96.8261 8.162C97.3548 7.902 97.9615 7.772 98.6461 7.772C99.1315 7.772 99.5518 7.81967 99.9071 7.915C100.271 8.01033 100.587 8.123 100.856 8.253L100.284 9.748C99.9808 9.62667 99.6948 9.527 99.4261 9.449C99.1661 9.371 98.9061 9.332 98.6461 9.332C98.3081 9.332 98.0265 9.41433 97.8011 9.579C97.5758 9.735 97.4068 9.97333 97.2941 10.294C97.1901 10.606 97.1381 11.0003 97.1381 11.477C97.1381 11.945 97.1945 12.335 97.3071 12.647C97.4285 12.9503 97.6018 13.18 97.8271 13.336C98.0525 13.4833 98.3255 13.557 98.6461 13.557C99.0535 13.557 99.4131 13.505 99.7251 13.401C100.037 13.2883 100.34 13.1367 100.635 12.946V14.597C100.34 14.7877 100.028 14.922 99.6991 15C99.3785 15.0867 98.9711 15.13 98.4771 15.13ZM106.923 7.902H109.055L106.247 11.308L109.302 15H107.105L104.206 11.399V15H102.269V7.902H104.206V11.347L106.923 7.902ZM116.512 11.438C116.512 12.0273 116.429 12.5517 116.265 13.011C116.109 13.4703 115.879 13.8603 115.576 14.181C115.281 14.493 114.921 14.7313 114.497 14.896C114.072 15.052 113.591 15.13 113.054 15.13C112.56 15.13 112.1 15.052 111.676 14.896C111.26 14.7313 110.9 14.493 110.597 14.181C110.293 13.8603 110.055 13.4703 109.882 13.011C109.717 12.5517 109.635 12.0273 109.635 11.438C109.635 10.6493 109.773 9.98633 110.051 9.449C110.328 8.903 110.727 8.487 111.247 8.201C111.767 7.915 112.382 7.772 113.093 7.772C113.76 7.772 114.349 7.915 114.861 8.201C115.372 8.487 115.775 8.903 116.07 9.449C116.364 9.98633 116.512 10.6493 116.512 11.438ZM111.611 11.438C111.611 11.906 111.658 12.3003 111.754 12.621C111.858 12.933 112.018 13.1713 112.235 13.336C112.451 13.492 112.733 13.57 113.08 13.57C113.426 13.57 113.704 13.492 113.912 13.336C114.128 13.1713 114.284 12.933 114.38 12.621C114.484 12.3003 114.536 11.906 114.536 11.438C114.536 10.97 114.484 10.58 114.38 10.268C114.284 9.956 114.128 9.722 113.912 9.566C113.695 9.41 113.413 9.332 113.067 9.332C112.555 9.332 112.183 9.50967 111.949 9.865C111.723 10.2117 111.611 10.736 111.611 11.438ZM121.038 7.772C121.696 7.772 122.26 7.89767 122.728 8.149C123.204 8.40033 123.573 8.76433 123.833 9.241C124.093 9.71767 124.223 10.3027 124.223 10.996V11.932H119.647C119.664 12.478 119.824 12.907 120.128 13.219C120.44 13.531 120.869 13.687 121.415 13.687C121.874 13.687 122.29 13.6437 122.663 13.557C123.035 13.4617 123.421 13.3187 123.82 13.128V14.623C123.473 14.7963 123.105 14.922 122.715 15C122.333 15.0867 121.87 15.13 121.324 15.13C120.613 15.13 119.985 15 119.439 14.74C118.893 14.4713 118.464 14.0683 118.152 13.531C117.84 12.9937 117.684 12.3177 117.684 11.503C117.684 10.671 117.822 9.982 118.1 9.436C118.386 8.88133 118.78 8.46533 119.283 8.188C119.785 7.91067 120.37 7.772 121.038 7.772ZM121.051 9.15C120.678 9.15 120.366 9.27133 120.115 9.514C119.872 9.75667 119.729 10.1337 119.686 10.645H122.403C122.403 10.359 122.351 10.1033 122.247 9.878C122.151 9.65267 122.004 9.475 121.805 9.345C121.605 9.215 121.354 9.15 121.051 9.15ZM134.73 11.438C134.73 12.0273 134.647 12.5517 134.483 13.011C134.327 13.4703 134.097 13.8603 133.794 14.181C133.499 14.493 133.139 14.7313 132.715 14.896C132.29 15.052 131.809 15.13 131.272 15.13C130.778 15.13 130.318 15.052 129.894 14.896C129.478 14.7313 129.118 14.493 128.815 14.181C128.511 13.8603 128.273 13.4703 128.1 13.011C127.935 12.5517 127.853 12.0273 127.853 11.438C127.853 10.6493 127.991 9.98633 128.269 9.449C128.546 8.903 128.945 8.487 129.465 8.201C129.985 7.915 130.6 7.772 131.311 7.772C131.978 7.772 132.567 7.915 133.079 8.201C133.59 8.487 133.993 8.903 134.288 9.449C134.582 9.98633 134.73 10.6493 134.73 11.438ZM129.829 11.438C129.829 11.906 129.876 12.3003 129.972 12.621C130.076 12.933 130.236 13.1713 130.453 13.336C130.669 13.492 130.951 13.57 131.298 13.57C131.644 13.57 131.922 13.492 132.13 13.336C132.346 13.1713 132.502 12.933 132.598 12.621C132.702 12.3003 132.754 11.906 132.754 11.438C132.754 10.97 132.702 10.58 132.598 10.268C132.502 9.956 132.346 9.722 132.13 9.566C131.913 9.41 131.631 9.332 131.285 9.332C130.773 9.332 130.401 9.50967 130.167 9.865C129.941 10.2117 129.829 10.736 129.829 11.438ZM135.901 10.749C135.901 9.70033 136.031 8.812 136.291 8.084C136.551 7.34733 136.963 6.76233 137.526 6.329C138.09 5.887 138.826 5.588 139.736 5.432C140.196 5.354 140.659 5.289 141.127 5.237C141.604 5.17633 142.094 5.11567 142.596 5.055L142.817 6.745C142.601 6.771 142.362 6.80133 142.102 6.836C141.842 6.862 141.578 6.89233 141.309 6.927C141.049 6.953 140.798 6.98333 140.555 7.018C140.313 7.05267 140.092 7.083 139.892 7.109C139.572 7.161 139.29 7.23467 139.047 7.33C138.805 7.41667 138.601 7.54233 138.436 7.707C138.272 7.87167 138.142 8.097 138.046 8.383C137.96 8.66033 137.903 9.02 137.877 9.462H137.968C138.072 9.29733 138.215 9.13267 138.397 8.968C138.588 8.80333 138.822 8.66467 139.099 8.552C139.377 8.43933 139.693 8.383 140.048 8.383C140.612 8.383 141.101 8.5 141.517 8.734C141.933 8.968 142.254 9.31467 142.479 9.774C142.705 10.2333 142.817 10.8053 142.817 11.49C142.817 12.296 142.67 12.9677 142.375 13.505C142.081 14.0423 141.673 14.4497 141.153 14.727C140.633 14.9957 140.031 15.13 139.346 15.13C138.826 15.13 138.354 15.0347 137.929 14.844C137.505 14.6533 137.141 14.3717 136.837 13.999C136.534 13.6263 136.3 13.167 136.135 12.621C135.979 12.075 135.901 11.451 135.901 10.749ZM139.463 13.557C139.741 13.557 139.979 13.4963 140.178 13.375C140.386 13.2537 140.547 13.0543 140.659 12.777C140.781 12.4997 140.841 12.127 140.841 11.659C140.841 11.0957 140.746 10.6493 140.555 10.32C140.373 9.982 140.053 9.813 139.593 9.813C139.316 9.813 139.056 9.88233 138.813 10.021C138.579 10.151 138.38 10.3027 138.215 10.476C138.051 10.6407 137.938 10.7837 137.877 10.905C137.877 11.243 137.903 11.5723 137.955 11.893C138.007 12.205 138.094 12.4867 138.215 12.738C138.337 12.9893 138.497 13.1887 138.696 13.336C138.904 13.4833 139.16 13.557 139.463 13.557ZM154.986 7.902V13.583H156.026V17.548H154.284V15H144.417V7.902H146.354V13.544H148.733V7.902H150.67V13.544H153.049V7.902H154.986ZM160.152 7.772C160.811 7.772 161.374 7.89767 161.842 8.149C162.319 8.40033 162.687 8.76433 162.947 9.241C163.207 9.71767 163.337 10.3027 163.337 10.996V11.932H158.761C158.778 12.478 158.939 12.907 159.242 13.219C159.554 13.531 159.983 13.687 160.529 13.687C160.988 13.687 161.404 13.6437 161.777 13.557C162.15 13.4617 162.535 13.3187 162.934 13.128V14.623C162.587 14.7963 162.219 14.922 161.829 15C161.448 15.0867 160.984 15.13 160.438 15.13C159.727 15.13 159.099 15 158.553 14.74C158.007 14.4713 157.578 14.0683 157.266 13.531C156.954 12.9937 156.798 12.3177 156.798 11.503C156.798 10.671 156.937 9.982 157.214 9.436C157.5 8.88133 157.894 8.46533 158.397 8.188C158.9 7.91067 159.485 7.772 160.152 7.772ZM160.165 9.15C159.792 9.15 159.48 9.27133 159.229 9.514C158.986 9.75667 158.843 10.1337 158.8 10.645H161.517C161.517 10.359 161.465 10.1033 161.361 9.878C161.266 9.65267 161.118 9.475 160.919 9.345C160.72 9.215 160.468 9.15 160.165 9.15ZM167.794 15.13C167.092 15.13 166.494 15.0043 166 14.753C165.506 14.493 165.129 14.0943 164.869 13.557C164.609 13.0197 164.479 12.3307 164.479 11.49C164.479 10.6233 164.626 9.917 164.921 9.371C165.215 8.825 165.623 8.422 166.143 8.162C166.671 7.902 167.278 7.772 167.963 7.772C168.448 7.772 168.868 7.81967 169.224 7.915C169.588 8.01033 169.904 8.123 170.173 8.253L169.601 9.748C169.297 9.62667 169.011 9.527 168.743 9.449C168.483 9.371 168.223 9.332 167.963 9.332C167.625 9.332 167.343 9.41433 167.118 9.579C166.892 9.735 166.723 9.97333 166.611 10.294C166.507 10.606 166.455 11.0003 166.455 11.477C166.455 11.945 166.511 12.335 166.624 12.647C166.745 12.9503 166.918 13.18 167.144 13.336C167.369 13.4833 167.642 13.557 167.963 13.557C168.37 13.557 168.73 13.505 169.042 13.401C169.354 13.2883 169.657 13.1367 169.952 12.946V14.597C169.657 14.7877 169.345 14.922 169.016 15C168.695 15.0867 168.288 15.13 167.794 15.13ZM177.461 9.358H175.134V15H173.197V9.358H170.87V7.902H177.461V9.358ZM185.063 9.761C185.063 10.1423 184.942 10.4673 184.699 10.736C184.465 11.0047 184.114 11.178 183.646 11.256V11.308C184.14 11.3687 184.534 11.5377 184.829 11.815C185.132 12.0923 185.284 12.4477 185.284 12.881C185.284 13.1843 185.223 13.466 185.102 13.726C184.989 13.986 184.807 14.2113 184.556 14.402C184.305 14.5927 183.98 14.74 183.581 14.844C183.191 14.948 182.714 15 182.151 15H178.771V7.902H182.151C182.706 7.902 183.2 7.96267 183.633 8.084C184.075 8.19667 184.422 8.38733 184.673 8.656C184.933 8.92467 185.063 9.293 185.063 9.761ZM183.282 12.777C183.282 12.4997 183.174 12.3003 182.957 12.179C182.74 12.049 182.415 11.984 181.982 11.984H180.708V13.661H182.021C182.385 13.661 182.684 13.596 182.918 13.466C183.161 13.3273 183.282 13.0977 183.282 12.777ZM183.1 9.917C183.1 9.69167 183.013 9.527 182.84 9.423C182.667 9.319 182.411 9.267 182.073 9.267H180.708V10.671H181.852C182.259 10.671 182.567 10.6147 182.775 10.502C182.992 10.3807 183.1 10.1857 183.1 9.917ZM193.395 11.438C193.395 12.0273 193.312 12.5517 193.148 13.011C192.992 13.4703 192.762 13.8603 192.459 14.181C192.164 14.493 191.804 14.7313 191.38 14.896C190.955 15.052 190.474 15.13 189.937 15.13C189.443 15.13 188.983 15.052 188.559 14.896C188.143 14.7313 187.783 14.493 187.48 14.181C187.176 13.8603 186.938 13.4703 186.765 13.011C186.6 12.5517 186.518 12.0273 186.518 11.438C186.518 10.6493 186.656 9.98633 186.934 9.449C187.211 8.903 187.61 8.487 188.13 8.201C188.65 7.915 189.265 7.772 189.976 7.772C190.643 7.772 191.232 7.915 191.744 8.201C192.255 8.487 192.658 8.903 192.953 9.449C193.247 9.98633 193.395 10.6493 193.395 11.438ZM188.494 11.438C188.494 11.906 188.541 12.3003 188.637 12.621C188.741 12.933 188.901 13.1713 189.118 13.336C189.334 13.492 189.616 13.57 189.963 13.57C190.309 13.57 190.587 13.492 190.795 13.336C191.011 13.1713 191.167 12.933 191.263 12.621C191.367 12.3003 191.419 11.906 191.419 11.438C191.419 10.97 191.367 10.58 191.263 10.268C191.167 9.956 191.011 9.722 190.795 9.566C190.578 9.41 190.296 9.332 189.95 9.332C189.438 9.332 189.066 9.50967 188.832 9.865C188.606 10.2117 188.494 10.736 188.494 11.438ZM43.601 19.772C44.1123 19.772 44.589 19.8413 45.031 19.98C45.4817 20.11 45.8413 20.3137 46.11 20.591C46.3873 20.8683 46.526 21.2237 46.526 21.657C46.526 22.0817 46.396 22.4197 46.136 22.671C45.8847 22.9223 45.5423 23.1043 45.109 23.217V23.282C45.4123 23.3513 45.6853 23.451 45.928 23.581C46.1707 23.7023 46.3613 23.8713 46.5 24.088C46.6473 24.296 46.721 24.5777 46.721 24.933C46.721 25.323 46.5953 25.687 46.344 26.025C46.1013 26.3543 45.72 26.623 45.2 26.831C44.6887 27.0303 44.03 27.13 43.224 27.13C42.8427 27.13 42.483 27.1127 42.145 27.078C41.807 27.0433 41.4993 26.9957 41.222 26.935C40.9447 26.8657 40.702 26.7833 40.494 26.688V25.089C40.7887 25.2277 41.1483 25.3533 41.573 25.466C42.0063 25.5787 42.4657 25.635 42.951 25.635C43.3063 25.635 43.6227 25.609 43.9 25.557C44.186 25.505 44.4113 25.4183 44.576 25.297C44.7493 25.1757 44.836 25.0153 44.836 24.816C44.836 24.6253 44.7623 24.4693 44.615 24.348C44.4677 24.218 44.2467 24.1227 43.952 24.062C43.6573 24.0013 43.2803 23.971 42.821 23.971H42.067V22.632H42.782C43.4233 22.632 43.9173 22.58 44.264 22.476C44.6193 22.372 44.797 22.177 44.797 21.891C44.797 21.6657 44.6843 21.4967 44.459 21.384C44.2337 21.2627 43.8653 21.202 43.354 21.202C43.016 21.202 42.6477 21.241 42.249 21.319C41.8503 21.397 41.4733 21.5097 41.118 21.657L40.546 20.305C40.9533 20.149 41.3997 20.0233 41.885 19.928C42.3703 19.824 42.9423 19.772 43.601 19.772ZM51.1369 19.759C52.0903 19.759 52.8183 19.967 53.3209 20.383C53.8323 20.7903 54.0879 21.4187 54.0879 22.268V27H52.7359L52.3589 26.038H52.3069C52.1076 26.2893 51.8996 26.4973 51.6829 26.662C51.4749 26.8267 51.2323 26.9437 50.9549 27.013C50.6863 27.091 50.3526 27.13 49.9539 27.13C49.5379 27.13 49.1609 27.052 48.8229 26.896C48.4936 26.7313 48.2336 26.4843 48.0429 26.155C47.8523 25.817 47.7569 25.3923 47.7569 24.881C47.7569 24.127 48.0213 23.5723 48.5499 23.217C49.0786 22.853 49.8716 22.6537 50.9289 22.619L52.1639 22.58V22.268C52.1639 21.8953 52.0643 21.6223 51.8649 21.449C51.6743 21.2757 51.4056 21.189 51.0589 21.189C50.7123 21.189 50.3743 21.241 50.0449 21.345C49.7156 21.4403 49.3863 21.5617 49.0569 21.709L48.4199 20.396C48.8013 20.1967 49.2216 20.0407 49.6809 19.928C50.1489 19.8153 50.6343 19.759 51.1369 19.759ZM51.4099 23.737C50.7859 23.7543 50.3526 23.867 50.1099 24.075C49.8673 24.283 49.7459 24.556 49.7459 24.894C49.7459 25.1887 49.8326 25.401 50.0059 25.531C50.1793 25.6523 50.4046 25.713 50.6819 25.713C51.0979 25.713 51.4489 25.5917 51.7349 25.349C52.0209 25.0977 52.1639 24.7467 52.1639 24.296V23.711L51.4099 23.737ZM66.6396 19.902V25.583H67.6796V29.548H65.9376V27H56.0706V19.902H58.0076V25.544H60.3866V19.902H62.3236V25.544H64.7026V19.902H66.6396ZM70.7522 22.71C70.7522 22.8573 70.7435 23.0393 70.7262 23.256C70.7175 23.4727 70.7045 23.6937 70.6872 23.919C70.6785 24.1443 70.6655 24.3437 70.6482 24.517C70.6309 24.6903 70.6179 24.8117 70.6092 24.881L73.8852 19.902H76.2122V27H74.3402V24.166C74.3402 23.932 74.3489 23.6763 74.3662 23.399C74.3835 23.113 74.4009 22.8487 74.4182 22.606C74.4442 22.3547 74.4615 22.164 74.4702 22.034L71.2072 27H68.8802V19.902H70.7522V22.71ZM84.1127 21.358H81.7857V27H79.8487V21.358H77.5217V19.902H84.1127V21.358ZM85.4222 27V19.902H87.3592V22.645H88.2952C89.0232 22.645 89.6212 22.723 90.0892 22.879C90.5572 23.0263 90.9039 23.256 91.1292 23.568C91.3632 23.88 91.4802 24.27 91.4802 24.738C91.4802 25.1973 91.3719 25.596 91.1552 25.934C90.9472 26.272 90.6135 26.5363 90.1542 26.727C89.7035 26.909 89.1055 27 88.3602 27H85.4222ZM88.2562 25.661C88.6375 25.661 88.9452 25.5917 89.1792 25.453C89.4219 25.3143 89.5432 25.0847 89.5432 24.764C89.5432 24.4867 89.4305 24.2873 89.2052 24.166C88.9885 24.0447 88.6635 23.984 88.2302 23.984H87.3592V25.661H88.2562ZM92.5072 27V19.902H94.4442V27H92.5072ZM105.403 19.902V27H103.466V21.358H100.892V27H98.9554V19.902H105.403ZM113.884 23.438C113.884 24.0273 113.802 24.5517 113.637 25.011C113.481 25.4703 113.251 25.8603 112.948 26.181C112.653 26.493 112.294 26.7313 111.869 26.896C111.444 27.052 110.963 27.13 110.426 27.13C109.932 27.13 109.473 27.052 109.048 26.896C108.632 26.7313 108.272 26.493 107.969 26.181C107.666 25.8603 107.427 25.4703 107.254 25.011C107.089 24.5517 107.007 24.0273 107.007 23.438C107.007 22.6493 107.146 21.9863 107.423 21.449C107.7 20.903 108.099 20.487 108.619 20.201C109.139 19.915 109.754 19.772 110.465 19.772C111.132 19.772 111.722 19.915 112.233 20.201C112.744 20.487 113.147 20.903 113.442 21.449C113.737 21.9863 113.884 22.6493 113.884 23.438ZM108.983 23.438C108.983 23.906 109.031 24.3003 109.126 24.621C109.23 24.933 109.39 25.1713 109.607 25.336C109.824 25.492 110.105 25.57 110.452 25.57C110.799 25.57 111.076 25.492 111.284 25.336C111.501 25.1713 111.657 24.933 111.752 24.621C111.856 24.3003 111.908 23.906 111.908 23.438C111.908 22.97 111.856 22.58 111.752 22.268C111.657 21.956 111.501 21.722 111.284 21.566C111.067 21.41 110.786 21.332 110.439 21.332C109.928 21.332 109.555 21.5097 109.321 21.865C109.096 22.2117 108.983 22.736 108.983 23.438ZM121.234 21.358H118.907V27H116.97V21.358H114.643V19.902H121.234V21.358ZM126.495 19.772C127.293 19.772 127.938 20.084 128.432 20.708C128.926 21.3233 129.173 22.2333 129.173 23.438C129.173 24.244 129.056 24.9243 128.822 25.479C128.588 26.025 128.268 26.4367 127.86 26.714C127.453 26.9913 126.981 27.13 126.443 27.13C126.105 27.13 125.811 27.0867 125.559 27C125.317 26.9133 125.109 26.8007 124.935 26.662C124.762 26.5233 124.61 26.376 124.48 26.22H124.376C124.411 26.3847 124.437 26.558 124.454 26.74C124.472 26.9133 124.48 27.0867 124.48 27.26V30.12H122.543V19.902H124.116L124.389 20.825H124.48C124.61 20.6343 124.766 20.461 124.948 20.305C125.13 20.1403 125.347 20.0103 125.598 19.915C125.858 19.8197 126.157 19.772 126.495 19.772ZM125.871 21.319C125.533 21.319 125.265 21.3883 125.065 21.527C124.866 21.6657 124.719 21.878 124.623 22.164C124.537 22.4413 124.489 22.7923 124.48 23.217V23.425C124.48 23.8843 124.524 24.2743 124.61 24.595C124.697 24.907 124.844 25.1453 125.052 25.31C125.26 25.4747 125.542 25.557 125.897 25.557C126.192 25.557 126.435 25.4747 126.625 25.31C126.816 25.1453 126.959 24.9027 127.054 24.582C127.15 24.2613 127.197 23.8713 127.197 23.412C127.197 22.7187 127.089 22.1987 126.872 21.852C126.664 21.4967 126.331 21.319 125.871 21.319ZM133.695 19.772C134.354 19.772 134.917 19.8977 135.385 20.149C135.862 20.4003 136.23 20.7643 136.49 21.241C136.75 21.7177 136.88 22.3027 136.88 22.996V23.932H132.304C132.321 24.478 132.482 24.907 132.785 25.219C133.097 25.531 133.526 25.687 134.072 25.687C134.531 25.687 134.947 25.6437 135.32 25.557C135.693 25.4617 136.078 25.3187 136.477 25.128V26.623C136.13 26.7963 135.762 26.922 135.372 27C134.991 27.0867 134.527 27.13 133.981 27.13C133.27 27.13 132.642 27 132.096 26.74C131.55 26.4713 131.121 26.0683 130.809 25.531C130.497 24.9937 130.341 24.3177 130.341 23.503C130.341 22.671 130.48 21.982 130.757 21.436C131.043 20.8813 131.437 20.4653 131.94 20.188C132.443 19.9107 133.028 19.772 133.695 19.772ZM133.708 21.15C133.335 21.15 133.023 21.2713 132.772 21.514C132.529 21.7567 132.386 22.1337 132.343 22.645H135.06C135.06 22.359 135.008 22.1033 134.904 21.878C134.809 21.6527 134.661 21.475 134.462 21.345C134.263 21.215 134.011 21.15 133.708 21.15ZM138.022 22.749C138.022 21.7003 138.152 20.812 138.412 20.084C138.672 19.3473 139.083 18.7623 139.647 18.329C140.21 17.887 140.947 17.588 141.857 17.432C142.316 17.354 142.78 17.289 143.248 17.237C143.724 17.1763 144.214 17.1157 144.717 17.055L144.938 18.745C144.721 18.771 144.483 18.8013 144.223 18.836C143.963 18.862 143.698 18.8923 143.43 18.927C143.17 18.953 142.918 18.9833 142.676 19.018C142.433 19.0527 142.212 19.083 142.013 19.109C141.692 19.161 141.41 19.2347 141.168 19.33C140.925 19.4167 140.721 19.5423 140.557 19.707C140.392 19.8717 140.262 20.097 140.167 20.383C140.08 20.6603 140.024 21.02 139.998 21.462H140.089C140.193 21.2973 140.336 21.1327 140.518 20.968C140.708 20.8033 140.942 20.6647 141.22 20.552C141.497 20.4393 141.813 20.383 142.169 20.383C142.732 20.383 143.222 20.5 143.638 20.734C144.054 20.968 144.374 21.3147 144.6 21.774C144.825 22.2333 144.938 22.8053 144.938 23.49C144.938 24.296 144.79 24.9677 144.496 25.505C144.201 26.0423 143.794 26.4497 143.274 26.727C142.754 26.9957 142.151 27.13 141.467 27.13C140.947 27.13 140.474 27.0347 140.05 26.844C139.625 26.6533 139.261 26.3717 138.958 25.999C138.654 25.6263 138.42 25.167 138.256 24.621C138.1 24.075 138.022 23.451 138.022 22.749ZM141.584 25.557C141.861 25.557 142.099 25.4963 142.299 25.375C142.507 25.2537 142.667 25.0543 142.78 24.777C142.901 24.4997 142.962 24.127 142.962 23.659C142.962 23.0957 142.866 22.6493 142.676 22.32C142.494 21.982 142.173 21.813 141.714 21.813C141.436 21.813 141.176 21.8823 140.934 22.021C140.7 22.151 140.5 22.3027 140.336 22.476C140.171 22.6407 140.058 22.7837 139.998 22.905C139.998 23.243 140.024 23.5723 140.076 23.893C140.128 24.205 140.214 24.4867 140.336 24.738C140.457 24.9893 140.617 25.1887 140.817 25.336C141.025 25.4833 141.28 25.557 141.584 25.557ZM148.409 22.71C148.409 22.8573 148.401 23.0393 148.383 23.256C148.375 23.4727 148.362 23.6937 148.344 23.919C148.336 24.1443 148.323 24.3437 148.305 24.517C148.288 24.6903 148.275 24.8117 148.266 24.881L151.542 19.902H153.869V27H151.997V24.166C151.997 23.932 152.006 23.6763 152.023 23.399C152.041 23.113 152.058 22.8487 152.075 22.606C152.101 22.3547 152.119 22.164 152.127 22.034L148.864 27H146.537V19.902H148.409V22.71ZM161.77 21.358H159.443V27H157.506V21.358H155.179V19.902H161.77V21.358ZM165.877 19.772C166.536 19.772 167.099 19.8977 167.567 20.149C168.044 20.4003 168.412 20.7643 168.672 21.241C168.932 21.7177 169.062 22.3027 169.062 22.996V23.932H164.486C164.504 24.478 164.664 24.907 164.967 25.219C165.279 25.531 165.708 25.687 166.254 25.687C166.714 25.687 167.13 25.6437 167.502 25.557C167.875 25.4617 168.261 25.3187 168.659 25.128V26.623C168.313 26.7963 167.944 26.922 167.554 27C167.173 27.0867 166.709 27.13 166.163 27.13C165.453 27.13 164.824 27 164.278 26.74C163.732 26.4713 163.303 26.0683 162.991 25.531C162.679 24.9937 162.523 24.3177 162.523 23.503C162.523 22.671 162.662 21.982 162.939 21.436C163.225 20.8813 163.62 20.4653 164.122 20.188C164.625 19.9107 165.21 19.772 165.877 19.772ZM165.89 21.15C165.518 21.15 165.206 21.2713 164.954 21.514C164.712 21.7567 164.569 22.1337 164.525 22.645H167.242C167.242 22.359 167.19 22.1033 167.086 21.878C166.991 21.6527 166.844 21.475 166.644 21.345C166.445 21.215 166.194 21.15 165.89 21.15ZM176.99 27H175.053V21.358H173.272C173.185 22.398 173.077 23.2863 172.947 24.023C172.826 24.751 172.67 25.3447 172.479 25.804C172.297 26.2633 172.063 26.6013 171.777 26.818C171.491 27.026 171.14 27.13 170.724 27.13C170.499 27.13 170.295 27.1127 170.113 27.078C169.931 27.0433 169.766 26.9913 169.619 26.922V25.375C169.714 25.4097 169.814 25.44 169.918 25.466C170.022 25.492 170.13 25.505 170.243 25.505C170.364 25.505 170.477 25.4573 170.581 25.362C170.694 25.2667 170.798 25.0977 170.893 24.855C170.997 24.6123 171.092 24.2787 171.179 23.854C171.266 23.4293 171.344 22.8963 171.413 22.255C171.491 21.605 171.56 20.8207 171.621 19.902H176.99V27ZM181.937 19.772C182.596 19.772 183.159 19.8977 183.627 20.149C184.104 20.4003 184.472 20.7643 184.732 21.241C184.992 21.7177 185.122 22.3027 185.122 22.996V23.932H180.546C180.563 24.478 180.724 24.907 181.027 25.219C181.339 25.531 181.768 25.687 182.314 25.687C182.773 25.687 183.189 25.6437 183.562 25.557C183.935 25.4617 184.32 25.3187 184.719 25.128V26.623C184.372 26.7963 184.004 26.922 183.614 27C183.233 27.0867 182.769 27.13 182.223 27.13C181.512 27.13 180.884 27 180.338 26.74C179.792 26.4713 179.363 26.0683 179.051 25.531C178.739 24.9937 178.583 24.3177 178.583 23.503C178.583 22.671 178.722 21.982 178.999 21.436C179.285 20.8813 179.679 20.4653 180.182 20.188C180.685 19.9107 181.27 19.772 181.937 19.772ZM181.95 21.15C181.577 21.15 181.265 21.2713 181.014 21.514C180.771 21.7567 180.628 22.1337 180.585 22.645H183.302C183.302 22.359 183.25 22.1033 183.146 21.878C183.051 21.6527 182.903 21.475 182.704 21.345C182.505 21.215 182.253 21.15 181.95 21.15ZM193.492 16.847C193.448 17.2977 193.323 17.6963 193.115 18.043C192.907 18.381 192.582 18.6453 192.14 18.836C191.698 19.0267 191.104 19.122 190.359 19.122C189.596 19.122 188.998 19.031 188.565 18.849C188.14 18.6583 187.837 18.394 187.655 18.056C187.473 17.718 187.364 17.315 187.33 16.847H189.059C189.102 17.3237 189.223 17.64 189.423 17.796C189.622 17.952 189.947 18.03 190.398 18.03C190.77 18.03 191.074 17.9477 191.308 17.783C191.55 17.6097 191.693 17.2977 191.737 16.847H193.492ZM188.565 22.71C188.565 22.8573 188.556 23.0393 188.539 23.256C188.53 23.4727 188.517 23.6937 188.5 23.919C188.491 24.1443 188.478 24.3437 188.461 24.517C188.443 24.6903 188.43 24.8117 188.422 24.881L191.698 19.902H194.025V27H192.153V24.166C192.153 23.932 192.161 23.6763 192.179 23.399C192.196 23.113 192.213 22.8487 192.231 22.606C192.257 22.3547 192.274 22.164 192.283 22.034L189.02 27H186.693V19.902H188.565V22.71Z" fill="white"/>
<path d="M27.2954 7.52L16.5 5L5.70453 7.52V14.24L6.68593 18.02L9.13945 21.8L12.5744 24.32L16.5 26L20.4256 24.32L23.8605 21.8L26.314 18.02L27.2954 14.24V7.52Z" fill="#0A467E" stroke="#E7E7E7" stroke-width="3"/>
<path d="M29 6L16.5 3L4 6V14L5.13636 18.5L7.97727 23L11.9545 26L16.5 28L21.0455 26L25.0227 23L27.8636 18.5L29 14V6Z" fill="#0A467E" stroke="#E7E7E7"/>
</svg>
